{"title":"60 Minutes AU - 10-7-2016","uid":15313026,"size":1346397382,"categoryP":"video","categoryS":"tv_shows","magnet":"?xt=urn:btih:e837d36e833965387d2901c7a43484f72138387d&amp;dn=60+Minutes+AU+-+10-7-2016&amp;tr=udp%3A%2F%2Ftracker.leechers-paradise.org%3A6969&amp;tr=udp%3A%2F%2Fzer0day.ch%3A1337&amp;tr=udp%3A%2F%2Fopen.demonii.com%3A1337&amp;tr=udp%3A%2F%2Ftracker.coppersurfer.tk%3A6969&amp;tr=udp%3A%2F%2Fexodus.desync.com%3A6969","seeders":3,"leechers":2,"uploader":"Bullrout","files":1,"time":1468598998,"description":"60 Minutes AU - 10-7-2016\r\n\r\n60 Minutes is Australia's leading current affairs programme, with a proven record of excellence over three decades. Television's top reporters investigate, analyse and uncover the issues affecting all Australians.\r\n\r\nComplete name                            : 60 Minutes AU - 10-7-2016.mkv\r\nFormat                                   : Matroska\r\nFormat version                           : Version 4 / Version 2\r\nFile size                                : 1.25 GiB\r\nDuration                                 : 53mn 54s\r\nOverall bit rate mode                    : Variable\r\nOverall bit rate                         : 3 330 Kbps\r\nEncoded date                             : UTC 2016-07-15 01:52:45\r\nWriting application                      : mkvmerge v9.3.0 ('Second Sight') 64bit\r\nWriting library                          : libebml v1.3.4 + libmatroska v1.4.5\r\n\r\nVideo\r\nID                                       : 2\r\nFormat                                   : AVC\r\nFormat/Info                              : Advanced Video Codec\r\nFormat profile                           :   \r\nFormat settings, CABAC                   : Yes\r\nFormat settings, ReFrames                : 3 frames\r\nCodec ID                                 : V_MPEG4/ISO/AVC\r\nDuration                                 : 53mn 54s\r\nBit rate mode                            : Variable\r\nBit rate                                 : 2 944 Kbps\r\nMaximum bit rate                         : 3 000 Kbps\r\nWidth                                    : 1 280 pixels\r\nHeight                                   : 720 pixels\r\nDisplay aspect ratio                     : 16:9\r\nFrame rate mode                          : Constant\r\nFrame rate                               : 25.000 fps\r\nStandard                                 : PAL\r\nColor space                              : YUV\r\nChroma subsampling                       : 4:2:0\r\nBit depth                                : 8 bits\r\nScan type                                : Progressive\r\nBits/(Pixel*Frame)                       : 0.128\r\nStream size                              : 1.11 GiB (88%)\r\nWriting library                          : x264 core 112\r\nDefault                                  : Yes\r\nForced                                   : No\r\nColor range                              : Limited\r\nColor primaries                          : BT.709\r\nTransfer characteristics                 : BT.709\r\nMatrix coefficients                      : BT.709\r\n\r\nAudio\r\nID                                       : 1\r\nFormat                                   : AC-3\r\nFormat/Info                              : Audio Coding 3\r\nMode extension                           : CM (complete main)\r\nFormat settings, Endianness              : Big\r\nCodec ID                                 : A_AC3\r\nDuration                                 : 53mn 54s\r\nBit rate mode                            : Constant\r\nBit rate                                 : 384 Kbps\r\nChannel(s)                               : 6 channels\r\nChannel positions                        : Front: L C R, Side: L R, LFE\r\nSampling rate                            : 48.0 KHz\r\nFrame rate                               : 31.250 fps (1536 spf)\r\nCompression mode                         : Lossy\r\nStream size                              : 148 MiB (12%)\r\nDefault                                  : Yes\r\nForced                                   : No","torrent":{"xt":"urn:btih:e837d36e833965387d2901c7a43484f72138387d","amp;dn":"60+Minutes+AU+-+10-7-2016","amp;tr":["udp%3A%2F%2Ftracker.leechers-paradise.org%3A6969","udp%3A%2F%2Fzer0day.ch%3A1337","udp%3A%2F%2Fopen.demonii.com%3A1337","udp%3A%2F%2Ftracker.coppersurfer.tk%3A6969","udp%3A%2F%2Fexodus.desync.com%3A6969"],"infoHash":"e837d36e833965387d2901c7a43484f72138387d","infoHashBuffer":{"type":"Buffer","data":[232,55,211,110,131,57,101,56,125,41,1,199,164,52,132,247,33,56,56,125]},"announce":[],"urlList":[]}}